<svg version="1.1" xmlns="http://www.w3.org/2000/svg" xmlns:xlink="http://www.w3.org/1999/xlink" width="179.95037" height="177.02472" viewBox="0,0,179.95037,177.02472"><g transform="translate(-150.02481,-91.48764)"><g data-paper-data="{&quot;isPaintingLayer&quot;:true}" fill-rule="nonzero" stroke-linecap="butt" stroke-linejoin="miter" stroke-miterlimit="10" stroke-dasharray="" stroke-dashoffset="0" style="mix-blend-mode: normal"><path d="M328.97519,180c0,48.33175 -39.83555,87.51236 -88.97519,87.51236c-49.13963,0 -88.97519,-39.18062 -88.97519,-87.51236c0,-48.33175 39.83555,-87.51236 88.97519,-87.51236c49.13964,0 88.97519,39.18061 88.97519,87.51236z" fill="#ffe692" stroke="#ff9400" stroke-width="2"/><path d="M248.38504,180c0,4.50906 -3.75411,8.16438 -8.38504,8.16438c-4.63093,0 -8.38504,-3.65532 -8.38504,-8.16438c0,-4.50906 3.75411,-8.16438 8.38504,-8.16438c4.63093,0 8.38504,3.65532 8.38504,8.16438z" fill="#ffc500" stroke="#ff9400" stroke-width="2"/><path d="M238.11895,170.27559v-75.06013h4.8306v75.06013z" fill="#ff7b00" stroke="#ff9400" stroke-width="2"/><text transform="translate(200.43701,226.1038) scale(0.5,0.5)" font-size="40" xml:space="preserve" fill="#ff9400" fill-rule="nonzero" stroke="none" stroke-width="1" stroke-linecap="butt" stroke-linejoin="miter" stroke-miterlimit="10" stroke-dasharray="" stroke-dashoffset="0" font-family="Sans Serif" font-weight="normal" text-anchor="start" style="mix-blend-mode: normal"><tspan x="0" dy="0">50%OFF</tspan></text><text transform="translate(195.97614,138.26897) scale(0.5,0.5)" font-size="40" xml:space="preserve" fill="#ffffff" fill-rule="nonzero" stroke="#ffffff" stroke-width="3" stroke-linecap="butt" stroke-linejoin="miter" stroke-miterlimit="10" stroke-dasharray="" stroke-dashoffset="0" font-family="Sans Serif" font-weight="normal" text-anchor="start" style="mix-blend-mode: normal"><tspan x="0" dy="0">100%OFF</tspan></text></g></g></svg>